<?xml version="1.0" standalone="no"?>
<!DOCTYPE svg PUBLIC "-//W3C//DTD SVG 20010904//EN"
 "http://www.w3.org/TR/2001/REC-SVG-20010904/DTD/svg10.dtd">
<svg version="1.0" xmlns="http://www.w3.org/2000/svg"
 width="512.000000pt" height="512.000000pt" viewBox="0 0 512.000000 512.000000"
 preserveAspectRatio="xMidYMid meet">

<g transform="translate(0.000000,512.000000) scale(0.100000,-0.100000)"
fill="#000000" stroke="none">
<path d="M771 4574 c-70 -19 -111 -44 -160 -100 -74 -84 -75 -91 -79 -521 l-3
-383 2031 0 2031 0 -3 388 -3 387 -28 57 c-34 68 -108 139 -175 165 -45 17
-124 18 -1802 20 -1514 2 -1762 0 -1809 -13z"/>
<path d="M2073 2850 c-46 -5 -87 -11 -93 -15 -19 -12 -10 -35 13 -35 49 0 51
-9 32 -126 -37 -237 -56 -349 -61 -354 -3 -3 -22 -10 -42 -15 -21 -6 -38 -18
-40 -28 -3 -15 8 -17 116 -17 97 0 122 3 133 16 10 13 10 17 -2 25 -8 5 -24 9
-36 9 -12 0 -25 5 -29 11 -3 6 -1 53 6 105 l13 94 48 0 c46 0 48 -1 60 -37 25
-81 80 -183 108 -202 20 -15 45 -21 79 -21 55 0 78 17 47 34 -43 25 -78 66
-125 149 -27 48 -50 93 -50 100 1 7 19 21 42 32 23 11 55 38 72 59 26 32 31
47 31 91 0 60 -19 89 -72 111 -43 18 -150 24 -250 14z m181 -40 c54 -20 71
-102 36 -171 -29 -55 -71 -79 -142 -79 -32 0 -58 1 -58 3 0 1 9 55 20 120 11
65 20 123 20 128 0 12 92 12 124 -1z"/>
<path d="M4210 2854 c-19 -2 -59 -7 -87 -10 -43 -4 -53 -9 -53 -24 0 -14 9
-20 33 -22 28 -3 32 -6 31 -33 0 -42 -65 -417 -74 -435 -5 -8 -25 -19 -46 -25
-25 -7 -40 -17 -42 -29 -4 -18 4 -19 149 -14 177 6 248 23 309 75 51 44 76
108 61 156 -14 43 -36 63 -86 80 l-38 13 39 21 c51 26 84 75 84 125 0 51 -12
71 -55 98 -36 22 -142 34 -225 24z m148 -51 c57 -36 63 -134 11 -185 -25 -25
-34 -28 -98 -28 -83 0 -80 -8 -54 136 12 68 20 94 32 97 26 6 85 -4 109 -20z
m10 -278 c55 -46 51 -123 -9 -181 -28 -27 -36 -29 -123 -32 l-93 -4 19 109
c10 59 20 114 23 121 3 8 28 12 79 12 65 0 78 -3 104 -25z"/>
<path d="M817 2844 c-14 -15 -6 -24 33 -34 32 -9 40 -15 39 -33 0 -12 -17
-121 -37 -241 l-37 -219 -40 -12 c-24 -6 -41 -17 -43 -28 -3 -16 6 -17 105
-15 92 3 108 5 111 20 2 12 -6 19 -32 24 -20 3 -38 9 -40 13 -3 4 1 42 9 86 7
44 21 131 30 193 10 62 21 114 24 117 4 2 59 -101 123 -229 l116 -232 36 4
c43 5 35 -21 81 277 46 300 38 272 84 280 22 4 42 13 45 21 4 12 -13 14 -103
14 -87 0 -110 -3 -115 -15 -4 -11 5 -16 34 -21 34 -6 40 -10 40 -31 0 -35 -49
-354 -58 -376 -5 -13 -38 43 -123 210 l-117 228 -79 3 c-43 1 -82 0 -86 -4z"/>
<path d="M1570 2835 c0 -8 14 -17 35 -21 19 -3 37 -9 39 -13 2 -3 -2 -44 -10
-91 -8 -47 -25 -154 -39 -239 -14 -85 -26 -155 -27 -156 -2 -1 -21 -6 -43 -11
-25 -6 -41 -15 -43 -26 -3 -16 8 -18 121 -18 105 0 126 3 131 16 9 23 9 23
-35 30 l-41 7 7 56 c4 31 21 142 38 246 l32 190 43 9 c24 5 42 15 42 22 0 11
-26 14 -125 14 -103 0 -125 -3 -125 -15z"/>
<path d="M2760 2835 c0 -8 17 -19 41 -25 41 -11 41 -12 36 -48 -21 -140 -51
-327 -60 -381 -12 -63 -13 -64 -52 -75 -24 -7 -41 -18 -43 -29 -3 -16 13 -17
229 -15 l233 3 7 35 c21 100 21 120 2 120 -12 0 -28 -19 -47 -55 l-28 -55
-114 0 -113 0 5 38 c3 20 12 73 19 117 8 44 19 114 24 155 25 170 28 177 73
192 23 8 44 20 46 26 3 9 -31 12 -127 12 -108 0 -131 -3 -131 -15z"/>
<path d="M3445 2643 c-66 -113 -122 -210 -124 -215 -1 -5 16 -8 39 -6 l42 3
82 142 c44 78 83 143 86 143 3 0 54 -82 112 -182 l106 -183 -260 -5 -259 -5
-20 -32 -21 -33 341 0 342 0 -12 23 c-42 79 -322 557 -328 557 -3 0 -60 -93
-126 -207z"/>
<path d="M1047 2043 c-4 -3 -7 -30 -7 -60 l0 -53 38 2 c36 1 37 1 4 5 l-32 4
6 55 c7 52 5 61 -9 47z"/>
<path d="M1815 2040 c-3 -5 -1 -10 4 -10 6 0 11 5 11 10 0 6 -2 10 -4 10 -3 0
-8 -4 -11 -10z"/>
<path d="M2005 2038 c-7 -24 -10 -108 -3 -108 4 0 8 10 10 23 2 17 11 23 35
25 62 6 49 72 -14 72 -13 0 -25 -6 -28 -12z m65 -29 c0 -14 -7 -19 -30 -19
-33 0 -35 3 -20 30 12 23 50 15 50 -11z"/>
<path d="M2380 2039 c0 -5 5 -7 10 -4 6 3 10 8 10 11 0 2 -4 4 -10 4 -5 0 -10
-5 -10 -11z"/>
<path d="M2537 1996 c-7 -55 -4 -77 9 -64 3 3 4 32 2 64 l-3 59 -8 -59z"/>
<path d="M3030 2036 c0 -7 -3 -34 -6 -60 l-7 -46 39 1 c30 2 33 3 12 6 -19 3
-28 10 -28 23 0 13 9 20 28 23 l27 4 -28 2 c-23 1 -28 5 -25 23 2 16 12 25 33
29 29 6 29 7 -7 8 -26 1 -38 -3 -38 -13z"/>
<path d="M1228 1985 l-3 -55 32 0 c39 0 60 29 43 60 -6 11 -18 20 -27 20 -15
0 -15 -1 1 -13 23 -17 17 -52 -9 -52 -17 0 -20 7 -20 48 1 65 -12 59 -17 -8z"/>
<path d="M1588 2019 c-2 -5 -2 -28 0 -50 3 -28 9 -39 21 -38 10 0 11 2 4 6
-18 7 -16 52 2 59 12 5 12 8 0 20 -16 17 -22 17 -27 3z"/>
<path d="M2283 2019 c-15 -15 -3 -89 15 -89 12 0 13 3 4 12 -16 16 -15 33 1
50 11 11 11 16 2 25 -8 7 -16 8 -22 2z"/>
<path d="M2432 2014 c-7 -8 -8 -15 -2 -19 6 -3 10 -19 10 -36 0 -21 5 -29 18
-28 10 0 12 3 5 6 -15 5 -17 45 -4 59 6 5 5 13 -3 20 -8 8 -15 7 -24 -2z"/>
<path d="M3495 2016 c-13 -14 -4 -78 11 -83 7 -2 9 8 6 28 -3 17 0 34 6 38 6
4 6 10 -2 17 -8 8 -14 8 -21 0z"/>
<path d="M3958 2018 c-3 -7 -3 -30 0 -50 3 -27 9 -38 21 -37 10 0 11 2 4 6
-16 6 -17 45 -1 61 9 9 9 12 -1 12 -7 0 -9 5 -6 10 3 6 2 10 -3 10 -6 0 -12
-6 -14 -12z"/>
<path d="M1166 2001 c28 -12 22 -61 -7 -61 -20 0 -26 15 -9 23 6 3 5 4 -2 3
-7 -1 -14 -10 -16 -19 -3 -13 4 -17 33 -17 36 0 36 0 33 38 -3 31 -7 37 -28
39 -23 3 -24 2 -4 -6z"/>
<path d="M1344 2002 c-35 -24 -15 -76 27 -70 18 2 25 10 27 32 5 37 -25 58
-54 38z m41 -32 c0 -18 -6 -26 -22 -28 -18 -3 -23 1 -23 21 0 28 9 39 30 35 9
-2 15 -14 15 -28z"/>
<path d="M1432 1965 c1 -30 2 -33 5 -13 2 15 13 34 24 42 20 14 20 14 -5 12
-24 -1 -26 -5 -24 -41z"/>
<path d="M1518 2003 c30 -6 33 -63 2 -63 -21 0 -27 15 -10 23 6 3 5 4 -2 3 -7
-1 -14 -10 -16 -19 -3 -13 4 -17 28 -17 34 0 45 17 36 55 -5 20 -12 25 -34 24
-23 -2 -24 -2 -4 -6z"/>
<path d="M1650 1990 c-17 -33 -3 -60 30 -60 23 0 31 5 36 25 12 48 -44 77 -66
35z m54 -5 c8 -23 -4 -45 -25 -45 -13 0 -19 7 -19 23 0 37 32 53 44 22z"/>
<path d="M1746 1979 c-8 -42 -8 -49 3 -49 11 0 20 69 10 75 -3 3 -9 -9 -13
-26z"/>
<path d="M1813 1970 c0 -25 2 -35 4 -22 2 12 2 32 0 45 -2 12 -4 2 -4 -23z"/>
<path d="M1862 2001 c-8 -5 -12 -21 -10 -37 2 -23 9 -30 30 -32 19 -2 30 3 38
17 21 40 -20 77 -58 52z m43 -31 c0 -18 -6 -26 -22 -28 -18 -3 -23 1 -23 21 0
28 9 39 30 35 9 -2 15 -14 15 -28z"/>
<path d="M2110 1995 c-7 -8 -10 -25 -6 -40 5 -20 13 -25 36 -25 23 0 31 5 36
25 7 29 -10 55 -36 55 -10 0 -23 -7 -30 -15z m54 -10 c8 -22 -4 -45 -24 -45
-22 0 -30 19 -18 43 11 21 34 22 42 2z"/>
<path d="M2206 1994 c-9 -24 -7 -66 3 -60 11 7 20 65 10 71 -4 3 -10 -2 -13
-11z"/>
<path d="M2367 2000 c28 -11 26 -53 -2 -59 -13 -2 -16 1 -11 14 4 11 2 15 -6
13 -27 -9 -13 -33 20 -36 33 -3 33 -3 30 35 -3 32 -7 38 -28 40 -25 3 -25 3
-3 -7z"/>
<path d="M2498 2004 c-5 -4 -8 -23 -8 -43 1 -30 2 -33 11 -18 11 19 8 73 -3
61z"/>
<path d="M2625 2002 c-3 -3 -4 -28 -4 -56 1 -28 3 -43 6 -34 3 10 16 18 36 20
28 3 32 7 35 36 2 17 0 33 -5 34 -24 4 -63 4 -68 0z m60 -22 c8 -26 -1 -40
-26 -40 -13 0 -19 7 -19 23 0 40 34 53 45 17z"/>
<path d="M2756 2001 c26 -11 26 -54 -1 -60 -13 -2 -16 1 -11 14 4 11 2 15 -6
13 -27 -9 -13 -33 20 -36 33 -3 33 -3 30 35 -3 32 -7 38 -28 40 -23 3 -23 2
-4 -6z"/>
<path d="M2822 1965 c1 -30 2 -33 5 -13 2 15 13 34 24 42 20 14 20 14 -5 12
-24 -1 -26 -5 -24 -41z"/>
<path d="M2908 2003 c30 -6 33 -63 2 -63 -21 0 -27 15 -10 23 6 3 5 4 -2 3 -7
-1 -14 -10 -16 -19 -5 -26 55 -23 63 3 11 35 -3 60 -33 59 -24 -2 -24 -2 -4
-6z"/>
<path d="M3130 2000 c-13 -9 -10 -14 14 -34 l29 -24 -29 -5 -29 -4 33 -2 c37
-1 44 22 12 39 -11 6 -20 16 -20 22 0 5 9 8 20 5 11 -3 20 -1 20 4 0 12 -31
11 -50 -1z"/>
<path d="M3210 1988 c0 -14 -3 -40 -6 -57 -4 -20 -3 -31 5 -31 6 0 11 7 11 15
0 9 9 15 25 15 31 0 50 32 35 60 -6 11 -18 20 -28 20 -16 -1 -16 -1 1 -11 9
-5 17 -21 17 -35 0 -21 -4 -25 -22 -22 -17 2 -23 10 -23 30 0 14 -3 30 -7 34
-5 4 -8 -4 -8 -18z"/>
<path d="M3322 2001 c-8 -5 -12 -21 -10 -37 2 -24 8 -29 33 -31 28 -2 28 -1 5
5 -31 10 -36 57 -5 57 11 0 19 -6 18 -12 -2 -7 2 -13 7 -13 14 0 13 13 -2 28
-14 14 -28 15 -46 3z"/>
<path d="M3410 1996 c-6 -8 -10 -25 -8 -38 2 -18 10 -23 33 -25 21 -1 23 0 7
4 -13 2 -26 11 -29 19 -8 20 17 46 39 41 10 -3 16 -1 12 4 -8 14 -40 11 -54
-5z"/>
<path d="M3552 1965 c1 -30 2 -33 5 -13 2 15 13 34 24 42 20 14 20 14 -5 12
-24 -1 -26 -5 -24 -41z"/>
<path d="M3620 1996 c-6 -8 -10 -25 -8 -38 4 -32 52 -38 68 -9 22 43 -29 83
-60 47z m45 -26 c0 -29 -32 -41 -41 -16 -9 24 4 48 23 44 12 -2 18 -12 18 -28z"/>
<path d="M3710 1968 c0 -49 5 -47 14 5 4 23 3 37 -4 37 -5 0 -10 -19 -10 -42z"/>
<path d="M3748 2003 c6 -3 12 -21 12 -41 0 -40 16 -34 22 8 5 38 32 31 40 -10
l6 -35 -1 40 -2 40 -45 1 c-25 1 -39 0 -32 -3z"/>
<path d="M3874 2002 c-35 -24 -15 -77 27 -69 22 4 22 4 -4 6 -25 1 -28 5 -25
29 2 19 9 27 23 27 11 0 19 -6 18 -12 -2 -7 2 -13 7 -13 14 0 13 13 -2 28 -14
14 -28 15 -44 4z"/>
<path d="M4013 1994 c-2 -7 -3 -25 -1 -41 l4 -28 8 30 c5 17 15 35 23 42 13
10 12 12 -7 10 -12 -1 -24 -7 -27 -13z"/>
<path d="M4079 1975 c-6 -40 -4 -53 7 -43 3 3 4 23 2 44 l-3 39 -6 -40z"/>
<path d="M4147 2000 c27 -11 26 -53 0 -58 -20 -4 -23 14 -4 21 7 4 6 6 -4 6
-17 1 -32 -22 -22 -33 4 -3 19 -6 35 -6 28 0 29 2 26 38 -3 31 -7 37 -28 39
-25 3 -25 3 -3 -7z"/>
<path d="M530 1190 c0 -369 5 -426 45 -496 33 -57 103 -118 161 -140 48 -18
102 -19 1829 -19 l1780 0 56 26 c71 33 125 87 158 158 l26 56 3 383 3 382
-2030 0 -2031 0 0 -350z"/>
</g>
</svg>
